<?xml version="1.0" encoding="utf-8"?>
<!-- Generator: Adobe Illustrator 19.0.0, SVG Export Plug-In . SVG Version: 6.00 Build 0)  -->
<svg version="1.0" id="Ebene_1" xmlns="http://www.w3.org/2000/svg" xmlns:xlink="http://www.w3.org/1999/xlink" x="0px" y="0px"
	 viewBox="0 0 197.794 28.346" enable-background="new 0 0 197.794 28.346" xml:space="preserve">
<g>
	<path fill="#FFFFFF" d="M17.667,21.883l5.606-6.227l-2.384-7.748l-3.318-0.651l-1.575,8.579c-0.057,0.309-0.277,0.563-0.574,0.664
		l-6.232,2.116l0.525,1.706L17.667,21.883z"/>
	<path fill="#FFFFFF" d="M24.291,0h-5.388l-1.019,5.551l3.848,0.755c0.313,0.062,0.568,0.29,0.662,0.596l2.681,8.714
		c0.09,0.292,0.02,0.609-0.184,0.835l-6.264,6.958c-0.167,0.185-0.401,0.287-0.645,0.287c-0.055,0-0.111-0.005-0.167-0.016
		L8.87,21.922c-0.313-0.062-0.568-0.29-0.662-0.596l-0.663-2.154L0,21.735v2.555c0,1.961,1.604,3.566,3.565,3.566h20.726
		c1.961,0,3.565-1.605,3.565-3.566V3.565C27.856,1.605,26.251,0,24.291,0z"/>
	<path fill="#FFFFFF" d="M5.528,12.613c-0.09-0.292-0.02-0.609,0.184-0.835l6.263-6.957c0.204-0.227,0.509-0.331,0.812-0.271
		l3.395,0.667L17.14,0H3.565C1.604,0,0,1.605,0,3.565v16.338l7.036-2.389L5.528,12.613z"/>
	<polygon fill="#FFFFFF" points="12.936,6.346 7.33,12.573 8.679,16.957 14.381,15.021 15.868,6.922 	"/>
</g>
<g>
	<g>
		<path fill="#FFFFFF" d="M33.068,0l8.719,0c1.459,0,2.78,0.164,3.963,0.491c1.183,0.327,2.176,0.843,2.982,1.548
			c0.805,0.705,1.428,1.611,1.868,2.717c0.44,1.108,0.661,2.441,0.661,4.001c0,1.913-0.428,3.491-1.283,4.737
			c-0.856,1.246-1.963,2.146-3.321,2.699l5.322,11.739h-5.926l-4.718-10.342h-2.642v10.342h-5.624V0z M41.598,13.211
			c1.409,0,2.459-0.327,3.152-0.981c0.692-0.654,1.038-1.774,1.038-3.359c0-1.51-0.346-2.567-1.038-3.171
			c-0.692-0.604-1.743-0.906-3.152-0.906h-2.906v8.417H41.598z"/>
		<path fill="#FFFFFF" d="M62.056,28.346c-1.208,0-2.347-0.195-3.416-0.585c-1.07-0.39-2.007-1.006-2.812-1.85
			c-0.806-0.843-1.441-1.925-1.906-3.246c-0.466-1.321-0.698-2.912-0.698-4.775c0-1.912,0.258-3.535,0.774-4.869
			c0.516-1.333,1.189-2.416,2.019-3.246s1.761-1.434,2.793-1.812c1.032-0.378,2.063-0.566,3.095-0.566
			c1.132,0,2.189,0.202,3.171,0.604c0.981,0.403,1.837,1.038,2.567,1.906c0.73,0.868,1.302,1.988,1.718,3.359
			c0.415,1.372,0.623,3.026,0.623,4.964v1.019H58.697c0.1,1.736,0.465,2.995,1.095,3.774c0.629,0.78,1.472,1.17,2.529,1.17
			c0.956,0,1.812-0.27,2.567-0.811c0.755-0.541,1.346-1.138,1.774-1.793l3.246,2.604c-0.881,1.283-1.944,2.297-3.189,3.039
			C65.472,27.975,63.918,28.346,62.056,28.346z M64.924,16.079c-0.101-1.51-0.403-2.623-0.906-3.34
			c-0.504-0.717-1.208-1.076-2.114-1.076c-0.78,0-1.466,0.334-2.057,1c-0.592,0.667-0.963,1.806-1.114,3.416H64.924z"/>
		<path fill="#FFFFFF" d="M76.474,28.158c-0.679,0-1.321-0.094-1.925-0.283c-0.604-0.189-1.127-0.497-1.566-0.925
			c-0.441-0.428-0.787-0.968-1.038-1.623c-0.252-0.654-0.377-1.459-0.377-2.416c0-1.082,0.251-2.057,0.755-2.925
			c0.503-0.868,1.227-1.623,2.17-2.265c0.944-0.642,2.082-1.195,3.416-1.661c1.333-0.465,2.831-0.849,4.492-1.151v-0.83
			c0-0.755-0.151-1.327-0.453-1.717c-0.302-0.39-0.83-0.585-1.585-0.585c-1.032,0-2.032,0.233-3.001,0.698
			c-0.969,0.466-1.818,0.963-2.548,1.491l-2.529-3.321c1.182-1.032,2.541-1.831,4.076-2.397c1.535-0.566,3.221-0.849,5.058-0.849
			c2.239,0,3.862,0.541,4.869,1.623c1.006,1.082,1.51,2.768,1.51,5.058v8.946c0,1.208,0.031,2.202,0.094,2.982
			c0.062,0.78,0.194,1.422,0.396,1.925h-5.511c-0.126-0.377-0.221-0.78-0.283-1.208c-0.063-0.428-0.094-0.931-0.094-1.51
			c-0.73,0.957-1.579,1.686-2.548,2.189C78.883,27.907,77.757,28.158,76.474,28.158z M78.852,23.893c0.78,0,1.465-0.17,2.057-0.51
			c0.591-0.34,1.088-0.698,1.491-1.076v-4.454c-2.013,0.428-3.422,0.981-4.227,1.661c-0.806,0.679-1.208,1.472-1.208,2.378
			c0,0.655,0.17,1.151,0.51,1.491C77.814,23.723,78.273,23.893,78.852,23.893z"/>
		<path fill="#FFFFFF" d="M99.083,28.346c-1.108,0-2.183-0.195-3.227-0.585c-1.044-0.39-1.963-1.006-2.755-1.85
			c-0.793-0.843-1.428-1.925-1.906-3.246c-0.478-1.321-0.717-2.912-0.717-4.775c0-1.912,0.251-3.535,0.755-4.869
			c0.503-1.333,1.17-2.416,2-3.246c0.83-0.83,1.774-1.434,2.831-1.812c1.057-0.378,2.126-0.566,3.208-0.566
			c1.233,0,2.284,0.17,3.152,0.51c0.868,0.34,1.604,0.806,2.208,1.397c0.604,0.592,1.088,1.29,1.453,2.095
			c0.365,0.806,0.66,1.674,0.887,2.604l-4.945,1.17c-0.277-1.208-0.623-2.082-1.038-2.623c-0.415-0.541-1.013-0.811-1.793-0.811
			c-1.007,0-1.781,0.478-2.321,1.434c-0.541,0.957-0.811,2.529-0.811,4.718c0,2.038,0.232,3.599,0.698,4.68
			c0.465,1.082,1.264,1.623,2.397,1.623c0.704,0,1.327-0.264,1.868-0.793c0.541-0.528,0.949-1.484,1.227-2.869l4.794,1.17
			c-0.227,0.931-0.554,1.799-0.981,2.604c-0.428,0.806-0.963,1.51-1.604,2.114c-0.642,0.604-1.403,1.076-2.284,1.415
			C101.297,28.177,100.266,28.346,99.083,28.346z"/>
		<path fill="#FFFFFF" d="M109.576,0l5.586,0v10.632c0.251-0.355,0.566-0.722,0.944-1.103c0.377-0.38,0.824-0.729,1.34-1.046
			c0.515-0.317,1.082-0.577,1.699-0.78c0.616-0.203,1.289-0.304,2.019-0.304c1.434,0,2.604,0.396,3.51,1.189
			s1.359,2.158,1.359,4.095v15.249h-5.548V14.489c0-0.779-0.139-1.362-0.415-1.751c-0.277-0.389-0.742-0.584-1.396-0.584
			c-0.655,0-1.283,0.195-1.887,0.584c-0.604,0.389-1.145,0.797-1.623,1.224v13.97h-5.586V0z"/>
	</g>
	<g>
		<path fill="#FFFFFF" d="M131.25,0l5.926,0l6.417,12.531c0.226,0.453,0.428,0.856,0.604,1.208c0.176,0.353,0.352,0.705,0.528,1.057
			c0.176,0.353,0.352,0.73,0.528,1.132c0.176,0.403,0.378,0.868,0.604,1.397h0.075V0l5.209,0v27.931h-5.322l-7.247-13.55
			c-0.202-0.378-0.384-0.717-0.547-1.019c-0.164-0.302-0.321-0.61-0.472-0.925c-0.151-0.314-0.308-0.648-0.472-1
			c-0.164-0.352-0.346-0.755-0.547-1.208h-0.075v17.702h-5.209V0z"/>
		<path fill="#FFFFFF" d="M163.371,28.346c-1.132,0-2.233-0.195-3.303-0.585c-1.07-0.39-2.019-1.006-2.85-1.85
			c-0.83-0.843-1.491-1.925-1.982-3.246c-0.49-1.321-0.736-2.912-0.736-4.775c0-1.887,0.245-3.497,0.736-4.831
			c0.491-1.333,1.145-2.416,1.963-3.246c0.818-0.83,1.761-1.44,2.831-1.831c1.069-0.39,2.183-0.585,3.341-0.585
			c1.132,0,2.233,0.195,3.303,0.585c1.069,0.391,2.019,1,2.85,1.831c0.83,0.83,1.491,1.913,1.982,3.246
			c0.49,1.334,0.736,2.944,0.736,4.831c0,1.862-0.245,3.454-0.736,4.775c-0.491,1.321-1.151,2.403-1.982,3.246
			c-0.831,0.843-1.781,1.46-2.85,1.85C165.603,28.151,164.503,28.346,163.371,28.346z M163.371,24.081
			c1.157,0,1.994-0.51,2.51-1.529c0.515-1.019,0.774-2.573,0.774-4.662c0-1.887-0.245-3.372-0.736-4.454
			c-0.491-1.082-1.34-1.623-2.548-1.623c-1.158,0-1.995,0.504-2.51,1.51c-0.516,1.007-0.774,2.529-0.774,4.567
			c0,1.913,0.239,3.422,0.717,4.529C161.282,23.528,162.137,24.081,163.371,24.081z"/>
		<path fill="#FFFFFF" d="M172.694,7.813h5.397l1.472,6.794c0.1,0.478,0.189,0.925,0.264,1.34c0.075,0.415,0.151,0.837,0.226,1.264
			c0.075,0.428,0.157,0.9,0.245,1.415c0.088,0.516,0.182,1.113,0.283,1.793h0.075c0.1-0.679,0.189-1.277,0.264-1.793
			c0.075-0.516,0.157-0.994,0.245-1.434c0.088-0.44,0.176-0.868,0.264-1.283c0.088-0.415,0.194-0.862,0.321-1.34l1.472-6.756h4.68
			l1.472,6.643c0.1,0.504,0.201,0.969,0.302,1.396c0.1,0.428,0.194,0.875,0.283,1.34c0.088,0.466,0.176,0.963,0.264,1.491
			c0.088,0.529,0.182,1.12,0.283,1.774h0.075c0.1-0.654,0.189-1.246,0.264-1.774c0.075-0.528,0.157-1.019,0.245-1.472
			c0.088-0.453,0.176-0.893,0.264-1.321c0.088-0.428,0.183-0.88,0.283-1.359l1.396-6.719h4.756l-4.681,20.156h-5.02L185.3,15.626
			h-0.075l-2.793,12.343h-5.02L172.694,7.813z"/>
	</g>
</g>
</svg>
