<?xml version="1.0" encoding="utf-8"?>
<!-- Generator: Adobe Illustrator 21.0.2, SVG Export Plug-In . SVG Version: 6.00 Build 0)  -->
<svg version="1.0" id="Ebene_1" xmlns="http://www.w3.org/2000/svg" xmlns:xlink="http://www.w3.org/1999/xlink" x="0px" y="0px"
	 viewBox="0 0 120 33" style="enable-background:new 0 0 120 33;" xml:space="preserve">
<style type="text/css">
	.st0{clip-path:url(#SVGID_2_);fill:#FFFFFF;}
	.st1{clip-path:url(#SVGID_4_);fill:#FFFFFF;}
	.st2{fill-rule:evenodd;clip-rule:evenodd;fill:#FFFFFF;}
</style>
<g>
	<defs>
		<rect id="SVGID_1_" x="41.1" y="6.7" width="23.7" height="21.7"/>
	</defs>
	<clipPath id="SVGID_2_">
		<use xlink:href="#SVGID_1_"  style="overflow:visible;"/>
	</clipPath>
	<path class="st0" d="M64.8,6.7l-10.5,0c0,0-1.8,0-2.6,0.2C51,7,50,7.2,49.2,8.5c0,0-0.3,0.5-0.8,1.7l-7.2,18c0,0,0,0.1,0.1,0.1
		l12.5,0c0,0,2.4,0.1,3.5-2.5L64.8,6.7C64.8,6.7,64.8,6.7,64.8,6.7 M55,25.3c-0.5,1.3-1.6,1.2-1.6,1.2h-2.7l4.6-11.4
		c0.6-1.5,1.7-1.4,1.7-1.4h2.7L55,25.3z M60.7,11.4c-0.5,1.3-1.8,1.2-1.8,1.2h-2.5l1.3-3.2l3.8,0L60.7,11.4z"/>
</g>
<g>
	<defs>
		<rect id="SVGID_3_" x="74.9" y="8" width="43.6" height="19.1"/>
	</defs>
	<clipPath id="SVGID_4_">
		<use xlink:href="#SVGID_3_"  style="overflow:visible;"/>
	</clipPath>
	<path class="st1" d="M96.7,25.7c-4.5,0-8.2-3.7-8.2-8.2c0-4.5,3.7-8.2,8.2-8.2c4.5,0,8.2,3.7,8.2,8.2
		C104.9,22.1,101.2,25.7,96.7,25.7 M109.6,21.3l-4.1,0c0.2-0.5,0.4-1,0.5-1.6l5.2,0l1.4-1.4l-6.3,0c0-0.3,0-0.5,0-0.8
		c0-0.3,0-0.5,0-0.8l7.9,0l1.4-1.4l-9.5,0c-0.1-0.6-0.3-1.1-0.5-1.6l11.6,0l1.4-1.4l-13.7,0C103,9.7,100.1,8,96.7,8
		c-3.4,0-6.4,1.8-8.1,4.4l-13.7,0l1.4,1.4l11.6,0c-0.2,0.5-0.4,1-0.5,1.6l-9.5,0l1.4,1.4l7.9,0c0,0.3,0,0.5,0,0.8c0,0.3,0,0.5,0,0.8
		l-6.3,0l1.4,1.4l5.2,0c0.1,0.6,0.3,1.1,0.5,1.6l-4.1,0l1.4,1.4l3.5,0c1.7,2.7,4.7,4.4,8.1,4.4c3.4,0,6.4-1.8,8.1-4.4l3.5,0
		L109.6,21.3z M103.2,19.7h-0.9l0-4.3h0.9V19.7z M98.6,19.7h-0.9l0-4.3h1.1l1.7,3.1l0-3.1h0.9l0,4.3h-1.1l-1.7-3.1V19.7z M96.7,19.7
		l-0.9,0l0-4.3h0.9L96.7,19.7z M91,19.7h-0.8v-4.3h1.3l1.1,3.5l1.1-3.5l1.3,0v4.3H94l0-3.2l-1,3.2l-0.9,0l-1-3.2L91,19.7z"/>
</g>
<path class="st2" d="M17.6,17.5H9.8c0.1-4.3,3.5-7.7,7.8-7.8V17.5z M17.9,24.9l0-7.1H25l0.4-0.2c-0.1,4.1-3.4,7.5-7.6,7.6L17.9,24.9
	z M17.6,4C10.1,4,4.1,10.1,4.1,17.5c0,7.5,6.1,13.5,13.5,13.5c7.5,0,13.5-6.1,13.5-13.5C31.1,10.1,25.1,4,17.6,4z M25.6,7.9l0.7,0.6
	L25,10.2l2-0.9l0.3,0.3l0.3,0.4l-1.4,1.8l1.9-0.9l0.5,0.8l-3.3,1.5l-0.5-0.8l1.6-2.1l-2.4,1.1l-0.7-0.6L25.6,7.9z M17.6,7.7
	l-0.9-2.6l-1.2,0.1l-0.1,3.7l1-0.1l0.1-2.5l0.8,2.5h0.4H18l0.8-2.5l0.1,2.5l1,0.1l-0.1-3.7l-1.2-0.1L17.6,7.7z M9,9.5
	c0.1-0.2,0.4-0.2,0.6-0.1C9.8,9.5,9.8,9.8,9.7,10l-1.1,1.4l-0.6-0.5L9,9.5z M10.3,10.3c0.1-0.2,0.4-0.2,0.6-0.1
	c0.2,0.1,0.2,0.4,0.1,0.6l-1.2,1.5l-0.6-0.5L10.3,10.3z M8.8,8.7l-2,2.5l2.9,2.3l2-2.5c0.3-0.4,0.3-1-0.2-1.4
	c-0.4-0.3-1-0.3-1.3,0.1c0.2-0.4,0.1-0.8-0.2-1.1C9.6,8.3,9.1,8.3,8.8,8.7z M9.4,17.5c0-4.5,3.7-8.2,8.2-8.2c4.5,0,8.2,3.7,8.2,8.2
	c0,4.5-3.7,8.2-8.2,8.2C13.1,25.7,9.4,22,9.4,17.5z M4.5,17.5c0-7.2,5.9-13.1,13.1-13.1c7.2,0,13.1,5.9,13.1,13.1
	s-5.9,13.1-13.1,13.1C10.4,30.6,4.5,24.8,4.5,17.5z M25.4,17.5h-7.6l0.2-0.3H25c-0.1-3.2-2.2-5.9-5.1-6.9L19.7,10
	C22.9,10.9,25.4,13.9,25.4,17.5z M17.6,25.3c-3.6,0-6.6-2.4-7.5-5.7l0.3,0.3c1,2.9,3.7,5,6.9,5.1v-7.1l0.3-0.2l0,7.2L17.6,25.3z"/>
</svg>
