<svg id="svg-defs" version="1.1" xmlns="http://www.w3.org/2000/svg" xmlns:xlink="http://www.w3.org/1999/xlink">
	<defs>
		<symbol id="icon-facebook-circle" viewBox="0 0 32 32">
			<title>facebook icon</title>
			<path id="XMLID_21_" d="M16,1.8c7.8,0,14.2,6.4,14.2,14.2S23.8,30.2,16,30.2S1.8,23.8,1.8,16S8.2,1.8,16,1.8 M16,1C7.7,1,1,7.7,1,16
				s6.7,15,15,15s15-6.7,15-15S24.3,1,16,1L16,1z"/>
			<path id="XMLID_17_" d="M17.1,23.5h-2.9c-0.2,0-0.4-0.2-0.4-0.4v-6.7h-1c-0.2,0-0.4-0.2-0.4-0.4v-2.5c0-0.2,0.2-0.4,0.4-0.4h1v-1.2
				c0-1.6,0.9-3.4,3.4-3.4h2.2c0.2,0,0.4,0.2,0.4,0.4v2.4c0,0.2-0.2,0.4-0.4,0.4h-1.6c-0.1,0-0.2,0-0.2,0.3v1.1h1.8
				c0.1,0,0.2,0,0.3,0.1c0.1,0.1,0.1,0.2,0.1,0.3L19.4,16c0,0.2-0.2,0.4-0.4,0.4h-1.5v6.7C17.5,23.4,17.3,23.5,17.1,23.5z M14.5,22.7
				h2.1V16c0-0.2,0.2-0.4,0.4-0.4h1.6l0.2-1.7h-1.8c-0.2,0-0.4-0.2-0.4-0.4V12c0-0.8,0.5-1.1,1-1.1h1.2V9.3h-1.8
				c-2.3,0-2.6,1.8-2.6,2.6v1.6c0,0.2-0.2,0.4-0.4,0.4h-1v1.7h1c0.2,0,0.4,0.2,0.4,0.4V22.7z"/>
		</symbol>
		<symbol id="icon-twitter-circle" viewBox="0 0 32 32">
			<title>twitter icon</title>
			<path id="XMLID_55_" d="M16,1.8c7.8,0,14.2,6.4,14.2,14.2S23.8,30.2,16,30.2S1.8,23.8,1.8,16S8.2,1.8,16,1.8 M16,1C7.7,1,1,7.7,1,16
				s6.7,15,15,15s15-6.7,15-15S24.3,1,16,1L16,1z"/>
			<path id="XMLID_51_" d="M13.1,22.8c-1.7,0-3.4-0.4-4.8-1.3C8,21.3,7.9,21,8,20.7c0,0,0,0,0-0.1c0.1-0.3,0.4-0.5,0.6-0.5H9
				c0.8,0,1.6-0.2,2.4-0.5c-0.9-0.4-1.7-1.2-2-2.2c-0.1-0.2,0-0.4,0.1-0.5c-0.8-0.7-1.2-1.7-1.2-2.8c0-0.2,0.1-0.4,0.3-0.5
				c0,0,0.1,0,0.1,0c-0.3-0.5-0.4-1.1-0.4-1.6c0-0.7,0.2-1.3,0.5-1.9C8.9,9.9,9,9.8,9.2,9.8c0.2,0,0.4,0,0.5,0.2l0,0
				c1.4,1.7,3.3,2.7,5.3,3c0-0.3,0-0.6,0.1-1c0.3-1.2,1.2-2.2,2.4-2.6c0.4-0.1,0.8-0.2,1.2-0.2c0.9,0,1.8,0.3,2.4,0.9c0,0,0,0,0,0
				c0,0,0,0,0,0c0.5-0.1,1-0.3,1.5-0.6c0.2-0.1,0.4-0.1,0.6,0c0.2,0.1,0.3,0.4,0.2,0.6c-0.1,0.2-0.1,0.3-0.2,0.5c0.2,0,0.4,0.1,0.5,0.2
				c0.1,0.2,0.2,0.4,0.1,0.6c-0.4,0.5-0.8,1.1-1.4,1.5c0,0-0.1,0.1-0.1,0.1v0c0,1.1-0.2,2.3-0.6,3.4c-0.4,1.1-1,2.2-1.8,3
				c-0.9,1-1.9,1.7-3,2.2C15.9,22.5,14.5,22.8,13.1,22.8z M9.2,21c1.2,0.6,2.5,0.9,3.8,0.9c1.4,0,2.6-0.3,3.7-0.8c1-0.5,1.9-1.2,2.7-2
				c0.7-0.8,1.3-1.8,1.7-2.8c0.4-1,0.6-2,0.6-3.1v0c0-0.3,0.1-0.6,0.4-0.7c0.2-0.2,0.5-0.4,0.7-0.6c-0.1,0-0.2,0.1-0.3,0.1
				c-0.2,0-0.4,0-0.5-0.2c-0.1-0.2-0.1-0.4,0.1-0.5c0.2-0.2,0.4-0.4,0.5-0.6c-0.4,0.2-0.7,0.3-1.1,0.4c0,0,0,0,0,0c0,0-0.1,0-0.2,0
				c-0.2,0-0.4-0.1-0.5-0.2l0,0c-0.5-0.5-1.2-0.7-1.9-0.7c-0.3,0-0.6,0-0.9,0.1c-0.9,0.3-1.6,1-1.9,2c-0.1,0.4-0.1,0.7-0.1,1.1
				c0,0,0,0,0,0c0,0.1,0,0.2-0.1,0.3c0,0,0,0.1-0.1,0.1c-0.1,0.1-0.2,0.2-0.4,0.2l0,0c0,0,0,0,0,0c-2.3-0.2-4.4-1.3-6-3.1
				c-0.1,0.4-0.2,0.8-0.2,1.1c0,0.8,0.3,1.5,0.9,2.1c0.1,0.1,0.2,0.3,0.1,0.5s-0.3,0.2-0.5,0.2c-0.1,0-0.3-0.1-0.5-0.1
				c0.1,1,0.7,1.9,1.7,2.3c0.2,0.1,0.3,0.3,0.2,0.5c0,0.2-0.2,0.3-0.4,0.3h-0.1c-0.1,0-0.1,0-0.2,0c0.4,0.9,1.2,1.5,2.1,1.6
				c0.2,0,0.3,0.1,0.3,0.3c0,0.2,0,0.3-0.2,0.4C11.6,20.6,10.5,21,9.2,21z"/>
		</symbol>
		<symbol id="icon-instagram-circle" viewBox="0 0 32 32">
			<title>instagram icon</title>
			<path id="XMLID_14_" d="M16,1.8c7.8,0,14.2,6.4,14.2,14.2S23.8,30.2,16,30.2S1.8,23.8,1.8,16S8.2,1.8,16,1.8 M16,1C7.7,1,1,7.7,1,16
				s6.7,15,15,15s15-6.7,15-15S24.3,1,16,1L16,1z"/>
			<path id="XMLID_8_" d="M16,12.4c-2,0-3.6,1.6-3.6,3.6s1.6,3.6,3.6,3.6s3.6-1.6,3.6-3.6S18,12.4,16,12.4z M16,18.8
				c-1.5,0-2.8-1.2-2.8-2.8s1.2-2.8,2.8-2.8s2.8,1.2,2.8,2.8S17.5,18.8,16,18.8z"/>
			<circle id="XMLID_5_" cx="20" cy="12" r="0.7"/>
			<path id="XMLID_2_" d="M19.4,9.6c1.7,0,3.1,1.4,3.1,3.1v6.7c0,1.7-1.4,3.1-3.1,3.1h-6.7c-1.7,0-3.1-1.4-3.1-3.1v-6.7
				c0-1.7,1.4-3.1,3.1-3.1H19.4 M19.4,8.8h-6.7c-2.1,0-3.9,1.7-3.9,3.9v6.7c0,2.1,1.8,3.9,3.9,3.9h6.7c2.1,0,3.9-1.8,3.9-3.9v-6.7
				C23.2,10.5,21.5,8.8,19.4,8.8L19.4,8.8z"/>
		</symbol>
		<symbol id="icon-instagram" viewBox="0 0 32 32">
			<title>instagram icon</title>
			<path id="XMLID_187_" d="M16,8.5c-4.1,0-7.5,3.4-7.5,7.5s3.4,7.5,7.5,7.5s7.5-3.4,7.5-7.5S20.2,8.5,16,8.5z M16,21.8
				c-3.2,0-5.8-2.6-5.8-5.8s2.6-5.8,5.8-5.8s5.8,2.6,5.8,5.8S19.2,21.8,16,21.8z"/>
			<circle id="XMLID_186_" cx="24.4" cy="7.7" r="1.5"/>
			<path id="XMLID_183_" d="M23,2.7c3.5,0,6.3,2.8,6.3,6.3v13.9c0,3.5-2.8,6.3-6.3,6.3H9.1c-3.5,0-6.3-2.8-6.3-6.3V9.1
				c0-3.5,2.8-6.3,6.3-6.3H23 M23,1H9.1C4.6,1,1,4.6,1,9.1v13.9C1,27.4,4.6,31,9.1,31h13.9c4.4,0,8.1-3.6,8.1-8.1V9.1
				C31,4.6,27.4,1,23,1L23,1z"/>
		</symbol>
		<symbol id="icon-linkedin-circle" viewBox="0 0 32 32">
			<title>linkedin icon</title>
			<path id="XMLID_21_" d="M16,1.8c7.8,0,14.2,6.4,14.2,14.2S23.8,30.2,16,30.2S1.8,23.8,1.8,16S8.2,1.8,16,1.8 M16,1C7.7,1,1,7.7,1,16
				s6.7,15,15,15s15-6.7,15-15S24.3,1,16,1L16,1z"/>
			<path d="M11.7,23.8H8.2c-0.2,0-0.4-0.2-0.4-0.4V12.9c0-0.2,0.2-0.4,0.4-0.4h3.5c0.2,0,0.4,0.2,0.4,0.4v10.5
				C12.1,23.6,11.9,23.8,11.7,23.8z M8.6,23h2.8v-9.8H8.6V23z"/>
			<path d="M17.1,23.7h-3.5c-0.2,0-0.4-0.2-0.4-0.4V12.9c0-0.2,0.2-0.4,0.4-0.4h3.5c0.2,0,0.4,0.2,0.4,0.4v0.4l0.4-0.4
				c0.3-0.3,0.7-0.4,1.1-0.5c0.3-0.1,0.8-0.2,1.3-0.2c1.3,0,2.4,0.5,3.2,1.3c0.9,0.9,1.3,2.2,1.2,3.6l0,6c0,0.2-0.2,0.4-0.4,0.4h-3.5
				c-0.2,0-0.4-0.2-0.4-0.4v-5.6c0-0.7-0.1-1.2-0.3-1.5c-0.2-0.3-0.5-0.4-1-0.4c-0.3,0-0.6,0.1-0.9,0.3c-0.2,0.1-0.5,0.4-0.5,0.7
				c0,0.1,0,0.2,0,0.4c0,0.1,0,0.3,0,0.4v5.9C17.5,23.5,17.3,23.7,17.1,23.7z M14,22.9h2.7v-5.5c0-0.2,0-0.4,0.1-0.6c0-0.1,0-0.2,0-0.3
				c0.1-0.6,0.6-1,0.9-1.2c0.5-0.3,0.9-0.5,1.3-0.5c0.8,0,1.4,0.3,1.6,0.8c0.3,0.4,0.4,1,0.4,1.9v5.2h2.8v-5.6c0.1-1.2-0.3-2.3-1-3
				c0,0,0,0,0,0c-0.6-0.7-1.5-1.1-2.6-1.1c-0.4,0-0.8,0.1-1.1,0.2c-0.4,0.1-0.6,0.2-0.8,0.3L17.8,14c-0.1,0.2-0.2,0.4-0.4,0.6
				c-0.1,0.1-0.3,0.1-0.4,0.1c-0.1-0.1-0.2-0.2-0.2-0.3v-1.1H14V22.9z"/>
			<path d="M9.9,11.8c-0.6,0-1.2-0.1-1.7-0.6c-0.3-0.4-0.6-0.9-0.6-1.6C7.6,9,7.9,8.4,8.2,8C8.8,7.6,9.4,7.4,10,7.4
				c0.6,0,1.2,0.2,1.6,0.6c0.5,0.5,0.7,1,0.7,1.6c0,0.7-0.2,1.1-0.7,1.6C11.2,11.6,10.6,11.8,9.9,11.8z M10,8.2c-0.5,0-0.9,0.1-1.3,0.4
				c-0.2,0.2-0.4,0.6-0.4,1c0,0.4,0.1,0.7,0.4,1.1C9.1,10.9,9.3,11,9.9,11c0.5,0,0.9-0.1,1.1-0.4c0.4-0.4,0.5-0.6,0.5-1
				c0-0.4-0.1-0.7-0.5-1C10.8,8.3,10.4,8.2,10,8.2z"/>
		</symbol>
		<symbol id="icon-email-circle" viewBox="0 0 32 32">
			<title>email icon</title>
			<path d="M15.7,31.4c-8.6,0-15.6-7-15.6-15.6c0-8.6,7-15.6,15.6-15.6c8.6,0,15.6,7,15.6,15.6C31.3,24.4,24.3,31.4,15.7,31.4z
				 M15.7,1.2c-8,0-14.6,6.5-14.6,14.6s6.5,14.6,14.6,14.6s14.6-6.5,14.6-14.6S23.8,1.2,15.7,1.2z"/>
			<g>
				<path d="M23,10.5c0.4,0,0.8,0.3,0.8,0.8v8.4c0,0.4-0.3,0.8-0.8,0.8H8.5c-0.4,0-0.8-0.3-0.8-0.8v-8.4c0-0.4,0.3-0.8,0.8-0.8H23
					 M23,9.6H8.5c-1,0-1.7,0.8-1.7,1.7v8.4c0,1,0.8,1.7,1.7,1.7H23c1,0,1.7-0.8,1.7-1.7v-8.4C24.7,10.3,24,9.6,23,9.6"/>
				<rect x="11.2" y="8.1" transform="matrix(0.5951 -0.8037 0.8037 0.5951 -6.0183 14.7599)" width="1" height="10.6"/>
				<rect x="14.5" y="12.9" transform="matrix(0.8038 -0.5949 0.5949 0.8038 -4.0982 14.4222)" width="10.6" height="1"/>
			</g>
		</symbol>
		<symbol id="icon-arrow-01" viewBox="0 0 32 32">
			<title>arrow icon 01</title>
			<polygon id="XMLID_64_" points="1,6.2 1,16 16,25.9 31,16.1 31,6.2 16,15.5 "/>
		</symbol>
		<symbol id="icon-arrow-02" viewBox="0 0 32 32">
			<title>arrow icon 02</title>
			<path id="XMLID_68_" d="M23.9,17.6l-0.3,0.3c-0.8,0.8-2.2,0.8-3.1,0l-12-12c-0.8-0.8-0.8-2.2,0-3.1l0.3-0.3c0.8-0.8,2.2-0.8,3.1,0
				l12,12C24.7,15.4,24.7,16.8,23.9,17.6"/>
			<path id="XMLID_67_" d="M8.8,29.6l-0.3-0.3c-0.8-0.8-0.8-2.2,0-3.1l12-12c0.8-0.8,2.2-0.8,3.1,0l0.3,0.3c0.8,0.8,0.8,2.2,0,3.1
				l-12,12C11,30.4,9.7,30.4,8.8,29.6"/>
		</symbol>
		<symbol id="icon-menu" viewBox="0 0 32 32">
			<title>menu icon</title>
			<rect id="XMLID_62_" x="1" y="24.5" width="30" height="3"/>
			<rect id="XMLID_63_" x="1" y="14.5" width="30" height="3"/>
			<rect id="XMLID_52_" x="1" y="4.5" width="30" height="3"/>
		</symbol>
		<symbol id="icon-comment" viewBox="0 0 32 32">
			<title>comment icon</title>
			<path d="M32 16q0 3.107-2.143 5.741t-5.821 4.161-8.036 1.527q-1.25 0-2.589-0.143-3.536 3.125-8.214 4.321-0.875 0.25-2.036 0.393-0.304 0.036-0.545-0.161t-0.313-0.518v-0.018q-0.054-0.071-0.009-0.214t0.036-0.179 0.080-0.17l0.107-0.161t0.125-0.152 0.143-0.161q0.125-0.143 0.554-0.616t0.616-0.679 0.554-0.705 0.58-0.911 0.482-1.054 0.464-1.357q-2.804-1.589-4.42-3.929t-1.616-5.018q0-2.321 1.268-4.438t3.411-3.652 5.107-2.438 6.214-0.902q4.357 0 8.036 1.527t5.821 4.161 2.143 5.741z"></path>
		</symbol>
		<symbol id="icon-heart" viewBox="0 0 32 32">
			<title>heart icon</title>
			<path d="M16 29.714q-0.464 0-0.786-0.321l-11.143-10.75q-0.179-0.143-0.491-0.464t-0.991-1.17-1.214-1.741-0.955-2.161-0.42-2.464q0-3.929 2.268-6.143t6.268-2.214q1.107 0 2.259 0.384t2.143 1.036 1.705 1.223 1.357 1.214q0.643-0.643 1.357-1.214t1.705-1.223 2.143-1.036 2.259-0.384q4 0 6.268 2.214t2.268 6.143q0 3.946-4.089 8.036l-11.125 10.714q-0.321 0.321-0.786 0.321z"></path>
		</symbol>
	</defs>
</svg>
