<?xml version="1.0" encoding="utf-8"?>
<!-- Generator: Adobe Illustrator 19.0.0, SVG Export Plug-In . SVG Version: 6.00 Build 0)  -->
<svg version="1.0" id="phone-grey" xmlns="http://www.w3.org/2000/svg" xmlns:xlink="http://www.w3.org/1999/xlink" x="0px" y="0px"
	 viewBox="0 0 32 32" style="enable-background:new 0 0 32 32;" xml:space="preserve">
<style type="text/css">
	.st0{fill:#555555;}
</style>
<g id="XMLID_142_">
	<path id="XMLID_145_" class="st0" d="M23,31H9c-1.2,0-2.2-1-2.2-2.2V3.2C6.7,2,7.8,1,9,1h14c1.2,0,2.2,1,2.2,2.2v25.5
		C25.3,30,24.2,31,23,31z M9,2.5c-0.4,0-0.7,0.3-0.7,0.7v25.5c0,0.4,0.3,0.7,0.7,0.7h14c0.4,0,0.7-0.3,0.7-0.7V3.2
		c0-0.4-0.3-0.7-0.7-0.7H9z"/>
	<path id="XMLID_144_" class="st0" d="M24.5,7.1h-17c-0.4,0-0.7-0.3-0.7-0.7c0-0.4,0.3-0.7,0.7-0.7h17c0.4,0,0.7,0.3,0.7,0.7
		C25.3,6.7,24.9,7.1,24.5,7.1z"/>
	<path id="XMLID_143_" class="st0" d="M24.5,26.4h-17c-0.4,0-0.7-0.3-0.7-0.7c0-0.4,0.3-0.7,0.7-0.7h17c0.4,0,0.7,0.3,0.7,0.7
		C25.3,26.1,24.9,26.4,24.5,26.4z"/>
</g>
</svg>
